<?xml version="1.0" encoding="utf-8"?>
<!-- Generator: Adobe Illustrator 19.1.0, SVG Export Plug-In . SVG Version: 6.00 Build 0)  -->
<svg version="1.1" xmlns="http://www.w3.org/2000/svg" xmlns:xlink="http://www.w3.org/1999/xlink" x="0px" y="0px"
	 viewBox="0 0 1366 424.7" style="enable-background:new 0 0 1366 424.7;" xml:space="preserve">
<style type="text/css">
	.st0{fill:#000100;}
	.st1{fill:none;stroke:#FFFFFF;stroke-miterlimit:10;}
	.st2{fill:#FFFFFF;}
	.st3{fill:none;}
	.st4{fill:#9F9F9F;}
	.st5{fill:none;stroke:#000000;stroke-miterlimit:10;}
	.st6{fill:none;stroke:#9F9F9F;stroke-miterlimit:10;}
	.st7{opacity:0.5;}
	.st8{fill:#C2C2C2;}
	.st9{fill:none;stroke:#A0A0A0;stroke-miterlimit:10;}
	.st10{fill:#020202;}
	.st11{clip-path:url(#SVGID_14_);}
	.st12{clip-path:url(#SVGID_20_);}
	.st13{fill:#E9EAE8;}
	.st14{fill:#DCDAD7;}
	.st15{fill:none;stroke:#808080;stroke-miterlimit:10;}
	.st16{fill:#5E5E5E;}
	.st17{fill:none;stroke:#5E5E5E;stroke-miterlimit:10;}
	.st18{fill:#808080;}
	.st19{fill:none;stroke:#000000;stroke-width:2;stroke-miterlimit:10;}
	.st20{opacity:0.1;}
	.st21{fill:none;stroke:#FFFFFF;stroke-width:2;stroke-miterlimit:10;}
	.st22{opacity:0.2;fill:none;stroke:#FFFFFF;stroke-miterlimit:10;}
	.st23{opacity:0;fill:none;stroke:#FFFFFF;stroke-miterlimit:10;}
	.st24{opacity:0.65;fill:none;stroke:#FFFFFF;stroke-width:1.3;stroke-miterlimit:10;}
	.st25{fill:#949494;}
	.st26{fill:#E2E2E2;}
	.st27{clip-path:url(#SVGID_48_);}
	.st28{fill:#D7D7D9;}
	.st29{fill:none;stroke:#5B5B5B;stroke-miterlimit:10;}
	.st30{clip-path:url(#SVGID_56_);}
	.st31{fill:#5B5B5B;}
	.st32{clip-path:url(#SVGID_58_);}
	.st33{clip-path:url(#SVGID_60_);fill:#FFFFFF;}
	.st34{clip-path:url(#SVGID_62_);fill:#FFFFFF;}
	.st35{fill:#C7C7C7;}
	.st36{fill:#DBDBDB;}
	.st37{opacity:0.3;}
	.st38{opacity:0.4;}
	.st39{fill:#CACACA;}
	.st40{clip-path:url(#SVGID_100_);}
	.st41{clip-path:url(#SVGID_102_);}
	.st42{clip-path:url(#SVGID_104_);}
	.st43{clip-path:url(#SVGID_106_);}
	.st44{clip-path:url(#SVGID_108_);fill:#FFFFFF;}
	.st45{clip-path:url(#SVGID_110_);fill:#FFFFFF;}
	.st46{clip-path:url(#SVGID_112_);}
	.st47{clip-path:url(#SVGID_114_);}
	.st48{clip-path:url(#SVGID_116_);fill:#FFFFFF;}
	.st49{clip-path:url(#SVGID_118_);fill:#FFFFFF;}
	.st50{fill:#AFABE1;}
	.st51{fill:#BD8080;}
	.st52{fill:#B8B8B8;}
	.st53{clip-path:url(#SVGID_162_);fill:#B8B8B8;}
	.st54{clip-path:url(#SVGID_162_);fill:#80A1AA;}
	.st55{clip-path:url(#SVGID_162_);fill:#808080;}
	.st56{clip-path:url(#SVGID_176_);fill:#B8B8B8;}
	.st57{clip-path:url(#SVGID_176_);fill:#80A1AA;}
	.st58{clip-path:url(#SVGID_176_);fill:#808080;}
	.st59{opacity:0.2;}
	.st60{fill:#CFCFCF;}
	.st61{fill:#BEBEBE;}
	.st62{fill-rule:evenodd;clip-rule:evenodd;}
	.st63{fill:#CECECE;}
	.st64{fill:#E1D57E;}
	.st65{fill:#D98080;}
	.st66{fill:#BCBCBC;}
	.st67{clip-path:url(#SVGID_224_);fill:#BCBCBC;}
	.st68{clip-path:url(#SVGID_224_);fill:#80A5AE;}
	.st69{clip-path:url(#SVGID_224_);fill:#848484;}
	.st70{fill:#F2F2EF;}
</style>
<g id="Layer_1">
</g>
<g id="Layer_2">
</g>
<g id="Layer_3">
</g>
<g id="Layer_4">
</g>
<g id="Layer_5">
</g>
<g id="Layer_6">
</g>
<g id="Layer_7">
</g>
<g id="Layer_8">
</g>
<g id="Layer_9">
</g>
<g id="Layer_10">
</g>
<g id="Layer_11">
</g>
<g id="Layer_12">
</g>
<g id="Layer_13">
</g>
<g id="Layer_14">
</g>
<g id="Layer_15">
</g>
<g id="Layer_16">
	<rect width="1366" height="424.7"/>
	<g class="st7">
		<path class="st21" d="M1196.1,77.5c0,0,12.9,227.1,10.2,227s-108.8-1.2-116.2,0"/>
		<path class="st21" d="M1037.5,341.4c0,6.6,48.9,11.9,109.2,11.9s109.2-5.3,109.2-11.9"/>
		<ellipse class="st22" cx="1148.1" cy="78.1" rx="47.9" ry="6.3"/>
		<ellipse class="st23" cx="1144.8" cy="314.4" rx="70.6" ry="4.2"/>
		<ellipse class="st22" cx="1146.7" cy="341.8" rx="109.2" ry="11.4"/>
		<polyline class="st24" points="1177.2,304 1177.2,271.4 1114.9,271.4 1114.9,304 		"/>
		<polyline class="st24" points="1158.7,257.4 1158.7,442.2 1137.1,442.2 1137.1,257.3 		"/>
		<ellipse class="st22" cx="1147.9" cy="292.1" rx="59" ry="7"/>
		<path class="st22" d="M1089,282.2c0,4.3,26.2,8,58.6,7.8c35.6-0.2,58.6-3.1,57.7-7.8c-0.8-4.3-25.4-7.8-57.7-7.8
			C1115.2,274.4,1089,277.9,1089,282.2z"/>
		<path class="st24" d="M1189.7,75c0,0,12.9,229,10.2,229"/>
		<path class="st22" d="M1089,271.5c0,4.3,26.2,8,58.6,7.8c35.6-0.2,58.6-3.1,57.7-7.8c-0.8-4.3-25.4-7.8-57.7-7.8
			C1115.2,263.6,1089,267.1,1089,271.5z"/>
		<path class="st22" d="M1089,260.1c0,4.3,26.2,8,58.6,7.8c35.6-0.2,58.6-3.1,57.7-7.8c-0.8-4.3-25.4-7.8-57.7-7.8
			C1115.2,252.3,1089,255.8,1089,260.1z"/>
		<path class="st22" d="M1091.8,248.9c0,4.3,25.5,8,56.9,7.8c34.5-0.2,56.9-3.1,56-7.8c-0.8-4.3-24.6-7.8-56-7.8
			S1091.8,244.6,1091.8,248.9z"/>
		<path class="st22" d="M1044.2,411.7c0,8.7,45.9,16.1,102.6,15.8c62.3-0.3,102.6-6.3,101.1-15.8c-1.4-8.6-44.4-15.8-101.1-15.8
			C1090.2,395.9,1044.2,403,1044.2,411.7z"/>
		<circle class="st24" cx="1206.6" cy="380.9" r="2.2"/>
		<circle class="st24" cx="1206.2" cy="366.9" r="3.1"/>
		<circle class="st24" cx="1191.2" cy="372.7" r="4.1"/>
		<circle class="st24" cx="1229" cy="373.6" r="7.3"/>
		<path class="st24" d="M1115.2,293.9c0,2.3,14,4.2,31.2,4.1c19-0.1,31.2-1.6,30.7-4.1c-0.4-2.2-13.5-4.1-30.7-4.1
			S1115.2,291.6,1115.2,293.9z"/>
		<path class="st24" d="M1114.9,288.2c0,2.3,14,4.2,31.4,4.1c19-0.1,31.4-1.6,30.9-4.1c-0.4-2.2-13.6-4.1-30.9-4.1
			C1128.9,284.1,1114.9,286,1114.9,288.2z"/>
		<path class="st24" d="M1115.2,282.3c0,2.3,14,4.2,31.2,4.1c19-0.1,31.2-1.6,30.7-4.1c-0.4-2.2-13.5-4.1-30.7-4.1
			S1115.2,280,1115.2,282.3z"/>
		<path class="st24" d="M1114.9,276.4c0,2.3,14,4.2,31.2,4.1c19-0.1,31.2-1.6,30.7-4.1c-0.4-2.2-13.5-4.1-30.7-4.1
			S1114.9,274.2,1114.9,276.4z"/>
		<path class="st24" d="M1174.5,72.8l6.5,183c0,0-41.2,3.4-63.1,0l4.4-183.3"/>
		<path class="st22" d="M1171.5,524.6c0,0,18.4-0.7,22.8-12.2c4.4-11.5,11.2-41.2,20-154.1c0.2-2.5,0.1-4.7-0.3-6.6"/>
		<path class="st22" d="M1147.4,524.6c0,0,16.3-0.3,20.1-7.8c5.6-10.9,5.4-38.9,8-156.5c0.1-2.5,0.1-4.7-0.3-6.6"/>
		<path class="st22" d="M1185.5,523.4c0,0,15.6-0.7,20.1-12.3s17.8-42.3,29.2-155.8c0.3-2.5,0.1-4.7-0.3-6.7"/>
		<path class="st22" d="M1161.3,524.5c0,0,15.6,0.1,20.1-11.4s6.4-35.5,14.5-153.3c0.2-2.5,0.1-4.7-0.3-6.6"/>
		<path class="st21" d="M1115.9,305v4.9c0,0-36.8,3-35.9,2.9c0.9-0.1-3.3,0.7-6.8,2.6c-7.9,4.2-29,17.3-29,17.3s-11.6,5.6-9.2,22.1
			c18.6,127.1,34,170.8,36.3,178.3c6.4,20.9,13.2,29.1,15.3,29.4c18.1,5.6,106.3,5.2,119.5,0.3c2.7-3.1,8.9-8.5,15.3-29.4
			c2.3-7.5,17.7-51.2,36.3-178.3c2.4-16.4-9.2-22.1-9.2-22.1s-21.1-13.1-29-17.3c-3.5-1.9-7.7-2.7-6.8-2.6
			c0.9,0.1-35.9-2.9-35.9-2.9v-4.9"/>
		<path class="st21" d="M1206.4,304.6c-5.1-0.9-58.1-0.5-90.8-0.2c-14.2,0.1-24.6,0.2-25.4,0.2c-2.7,0,7.9-224.5,10.2-227
			c2.3-2.5,20.6-5.7,47.7-5.7c26.5,0,47.9,2.8,47.9,6.3"/>
		<path class="st24" d="M1122.5,271.2v43.1c0,0-28.5,2.8-27.6,2.7s-6.5,0.3-10.5,1.6c-9.9,2.8-30.9,16-30.9,16s-10.9,4.2-9.2,17.6
			c15.2,117.9,31,145.9,35.4,157.9c4.4,12,20.1,12.6,20.1,12.6s59.4,4.3,94.8,0c5.2-0.8,15.6-0.6,20.1-12.6s20.2-40,35.4-157.9
			c1.7-13.4-9.2-17.6-9.2-17.6s-21-13.2-30.9-16c-4-1.3-11.4-1.6-10.5-1.6s-27.6-2.7-27.6-2.7v-43.1"/>
		<path class="st22" d="M1124.7,525c0,0-18.4-0.7-22.8-12.2c-4.4-11.5-11.2-41.2-20-154.1c-0.2-2.5-0.1-4.7,0.3-6.6"/>
		<path class="st22" d="M1148.8,525.1c0,0-16.3-0.3-20.1-7.8c-5.6-10.9-5.4-38.9-8-156.5c-0.1-2.5-0.1-4.7,0.3-6.6"/>
		<path class="st22" d="M1110.7,523.9c0,0-15.6-0.7-20.1-12.3s-17.8-42.3-29.2-155.8c-0.3-2.5-0.1-4.7,0.3-6.7"/>
		<path class="st22" d="M1135,524.9c0,0-15.6,0.1-20.1-11.4c-4.4-11.5-6.4-35.5-14.5-153.3c-0.2-2.5-0.1-4.7,0.3-6.6"/>
	</g>
	<g class="st7">
		<path class="st21" d="M265.4-128.4c0,0,12.9,227.1,10.2,227c-2.7,0-108.8-1.2-116.2,0"/>
		<path class="st21" d="M106.8,135.4c0,6.6,48.9,11.9,109.2,11.9s109.2-5.3,109.2-11.9"/>
		<ellipse class="st23" cx="214.2" cy="108.4" rx="70.6" ry="4.2"/>
		<ellipse class="st22" cx="216" cy="135.9" rx="109.2" ry="11.4"/>
		<polyline class="st24" points="246.5,98 246.5,65.4 184.3,65.4 184.3,98.1 		"/>
		<polyline class="st24" points="228,51.5 228,236.2 206.5,236.2 206.5,51.4 		"/>
		<line class="st24" x1="226.9" y1="236.2" x2="230.9" y2="286.9"/>
		<ellipse class="st22" cx="217.3" cy="86.1" rx="59" ry="7"/>
		<line class="st24" x1="223.9" y1="236.2" x2="226.3" y2="286.9"/>
		<line class="st24" x1="220.8" y1="236.2" x2="221.4" y2="286.9"/>
		<path class="st22" d="M154.9,310c0,5,28.1,9.2,62.8,9c38.1-0.2,62.8-3.6,61.9-9c-0.8-4.9-27.2-9-61.9-9S154.9,305,154.9,310z"/>
		<path class="st22" d="M158.3,76.3c0,4.3,26.2,8,58.6,7.8c35.6-0.2,58.6-3.1,57.7-7.8c-0.8-4.3-25.4-7.8-57.7-7.8
			S158.3,72,158.3,76.3z"/>
		<path class="st24" d="M259.1-131c0,0,12.9,229,10.2,229"/>
		<path class="st22" d="M158.3,65.5c0,4.3,26.2,8,58.6,7.8c35.6-0.2,58.6-3.1,57.7-7.8c-0.8-4.3-25.4-7.8-57.7-7.8
			S158.3,61.2,158.3,65.5z"/>
		<path class="st22" d="M158.3,54.1c0,4.3,26.2,8,58.6,7.8c35.6-0.2,58.6-3.1,57.7-7.8c-0.8-4.3-25.4-7.8-57.7-7.8
			S158.3,49.8,158.3,54.1z"/>
		<path class="st22" d="M161.2,42.9c0,4.3,25.5,8,56.9,7.8c34.5-0.2,56.9-3.1,56-7.8c-0.8-4.3-24.6-7.8-56-7.8
			S161.2,38.6,161.2,42.9z"/>
		<path class="st22" d="M113.6,205.8c0,8.7,45.9,16.1,102.6,15.8c62.3-0.3,102.6-6.3,101.1-15.8c-1.4-8.6-44.4-15.8-101.1-15.8
			S113.6,197,113.6,205.8z"/>
		<path class="st22" d="M129.6,287.1c0,7.1,39.1,13.2,87.2,12.9c53-0.3,87.2-5.2,85.9-12.9c-1.2-7.1-37.8-12.9-85.9-12.9
			S129.6,279.9,129.6,287.1z"/>
		<circle class="st24" cx="275.9" cy="174.9" r="2.2"/>
		<circle class="st24" cx="275.6" cy="160.9" r="3.1"/>
		<circle class="st24" cx="260.5" cy="166.7" r="4.1"/>
		<circle class="st24" cx="298.4" cy="167.7" r="7.3"/>
		<path class="st24" d="M184.6,87.9c0,2.3,14,4.2,31.2,4.1c19-0.1,31.2-1.6,30.7-4.1c-0.4-2.2-13.5-4.1-30.7-4.1
			S184.6,85.7,184.6,87.9z"/>
		<path class="st24" d="M184.3,82.3c0,2.3,14,4.2,31.4,4.1c19-0.1,31.4-1.6,30.9-4.1c-0.4-2.2-13.6-4.1-30.9-4.1
			S184.3,80,184.3,82.3z"/>
		<path class="st24" d="M184.6,76.3c0,2.3,14,4.2,31.2,4.1c19-0.1,31.2-1.6,30.7-4.1c-0.4-2.2-13.5-4.1-30.7-4.1
			S184.6,74.1,184.6,76.3z"/>
		<path class="st24" d="M184.3,70.5c0,2.3,14,4.2,31.2,4.1c19-0.1,31.2-1.6,30.7-4.1c-0.4-2.2-13.5-4.1-30.7-4.1
			S184.3,68.2,184.3,70.5z"/>
		<path class="st24" d="M243.9-133.2l6.5,183c0,0-41.2,3.4-63.1,0l4.4-183.3"/>
		<path class="st22" d="M240.9,318.6c0,0,18.4-0.7,22.8-12.2c4.4-11.5,11.2-41.2,20-154.1c0.2-2.5,0.1-4.7-0.3-6.6"/>
		<path class="st22" d="M216.8,318.7c0,0,16.3-0.3,20.1-7.8c5.6-10.9,5.4-38.9,8-156.5c0.1-2.5,0.1-4.7-0.3-6.6"/>
		<path class="st22" d="M254.9,317.5c0,0,15.6-0.7,20.1-12.3s17.8-42.3,29.2-155.8c0.3-2.5,0.1-4.7-0.3-6.7"/>
		<path class="st22" d="M230.7,318.6c0,0,15.6,0.1,20.1-11.4c4.4-11.5,6.4-35.5,14.5-153.3c0.2-2.5,0.1-4.7-0.3-6.6"/>
		<path class="st21" d="M185.3,99v4.9c0,0-36.8,3-35.9,2.9c0.9-0.1-3.3,0.7-6.8,2.6c-7.9,4.2-29,17.3-29,17.3s-11.6,5.6-9.2,22.1
			c18.6,127.1,34,170.8,36.3,178.3c6.4,20.9,13.2,29.1,15.3,29.4c18.1,5.6,106.3,5.2,119.5,0.3c2.7-3.1,8.9-8.5,15.3-29.4
			c2.3-7.5,17.7-51.2,36.3-178.3c2.4-16.4-9.2-22.1-9.2-22.1s-21.1-13.1-29-17.3c-3.5-1.9-7.7-2.7-6.8-2.6
			c0.9,0.1-35.9-2.9-35.9-2.9v-4.9"/>
		<path class="st21" d="M275.7,98.6c-5.1-0.9-58.1-0.5-90.8-0.2c-14.2,0.1-24.6,0.2-25.4,0.2c-2.7,0,7.9-224.5,10.2-227
			c2.3-2.5,20.6-5.7,47.7-5.7c26.5,0,47.9,2.8,47.9,6.3"/>
		<path class="st24" d="M191.9,65.2v43.1c0,0-28.5,2.8-27.6,2.7c0.9-0.1-6.5,0.3-10.5,1.6c-9.9,2.8-30.9,16-30.9,16
			s-10.9,4.2-9.2,17.6c15.2,117.9,31,145.9,35.4,157.9c4.4,12,20.1,12.6,20.1,12.6s59.4,4.3,94.8,0c5.2-0.8,15.6-0.6,20.1-12.6
			c4.4-12,20.2-40,35.4-157.9c1.7-13.4-9.2-17.6-9.2-17.6s-21-13.2-30.9-16c-4-1.3-11.4-1.6-10.5-1.6c0.9,0.1-27.6-2.7-27.6-2.7
			V65.2"/>
		<line class="st24" x1="207.9" y1="236.2" x2="203.9" y2="286.9"/>
		<line class="st24" x1="210.8" y1="236.2" x2="208.5" y2="286.9"/>
		<line class="st24" x1="214" y1="236.2" x2="213.4" y2="286.9"/>
		<line class="st24" x1="217.5" y1="236.2" x2="217.4" y2="286.9"/>
		<path class="st22" d="M194.1,319.1c0,0-18.4-0.7-22.8-12.2c-4.4-11.5-11.2-41.2-20-154.1c-0.2-2.5-0.1-4.7,0.3-6.6"/>
		<path class="st22" d="M218.2,319.1c0,0-16.3-0.3-20.1-7.8c-5.6-10.9-5.4-38.9-8-156.5c-0.1-2.5-0.1-4.7,0.3-6.6"/>
		<path class="st22" d="M180.1,317.9c0,0-15.6-0.7-20.1-12.3c-4.4-11.6-17.8-42.3-29.2-155.8c-0.3-2.5-0.1-4.7,0.3-6.7"/>
		<path class="st22" d="M204.3,319c0,0-15.6,0.1-20.1-11.4s-6.4-35.5-14.5-153.3c-0.2-2.5-0.1-4.7,0.3-6.6"/>
	</g>
</g>
<g id="Layer_17">
</g>
<g id="Layer_18">
</g>
<g id="Layer_19">
</g>
<g id="Layer_20">
</g>
<g id="Layer_21">
</g>
<g id="Layer_22">
</g>
<g id="Layer_23">
</g>
<g id="Layer_24">
</g>
<g id="Layer_25">
</g>
<g id="Layer_26">
</g>
<g id="Layer_27">
</g>
<g id="Layer_28">
</g>
<g id="Layer_29">
</g>
<g id="Layer_30">
</g>
<g id="Layer_31">
</g>
<g id="Layer_32">
</g>
<g id="Layer_33">
</g>
<g id="Layer_34">
</g>
<g id="Layer_35">
</g>
<g id="Layer_36">
</g>
</svg>
